<mxfile host="app.diagrams.net" agent="Mozilla/5.0 (Windows NT 10.0; Win64; x64) AppleWebKit/537.36 (KHTML, like Gecko) Chrome/135.0.0.0 Safari/537.36" version="26.2.14">
  <diagram name="PÃ¡gina-1" id="HLk7sxZ1YHKDchTzlGNn">
    <mxGraphModel dx="2621" dy="786" grid="1" gridSize="10" guides="1" tooltips="1" connect="1" arrows="1" fold="1" page="1" pageScale="1" pageWidth="827" pageHeight="1169" math="0" shadow="0">
      <root>
        <mxCell id="0" />
        <mxCell id="1" parent="0" />
        <mxCell id="OWa3Dt7lXm-wcct0nZQZ-117" style="rounded=0;orthogonalLoop=1;jettySize=auto;html=1;entryX=0.333;entryY=0.86;entryDx=0;entryDy=0;endArrow=none;startFill=0;strokeWidth=1;entryPerimeter=0;" edge="1" parent="1" source="OWa3Dt7lXm-wcct0nZQZ-3" target="OWa3Dt7lXm-wcct0nZQZ-115">
          <mxGeometry relative="1" as="geometry" />
        </mxCell>
        <mxCell id="OWa3Dt7lXm-wcct0nZQZ-118" value="1" style="edgeLabel;html=1;align=center;verticalAlign=middle;resizable=0;points=[];" vertex="1" connectable="0" parent="OWa3Dt7lXm-wcct0nZQZ-117">
          <mxGeometry x="-0.1711" y="1" relative="1" as="geometry">
            <mxPoint as="offset" />
          </mxGeometry>
        </mxCell>
        <mxCell id="OWa3Dt7lXm-wcct0nZQZ-3" value="RESTAURANTES" style="rounded=0;whiteSpace=wrap;html=1;" vertex="1" parent="1">
          <mxGeometry x="380" y="760" width="120" height="40" as="geometry" />
        </mxCell>
        <mxCell id="OWa3Dt7lXm-wcct0nZQZ-5" value="CIDADES" style="rounded=0;whiteSpace=wrap;html=1;" vertex="1" parent="1">
          <mxGeometry x="380" y="360" width="120" height="40" as="geometry" />
        </mxCell>
        <mxCell id="OWa3Dt7lXm-wcct0nZQZ-116" value="" style="rounded=0;orthogonalLoop=1;jettySize=auto;html=1;endArrow=none;startFill=0;strokeWidth=1;entryX=1;entryY=0;entryDx=0;entryDy=0;" edge="1" parent="1" source="OWa3Dt7lXm-wcct0nZQZ-7" target="OWa3Dt7lXm-wcct0nZQZ-115">
          <mxGeometry relative="1" as="geometry" />
        </mxCell>
        <mxCell id="OWa3Dt7lXm-wcct0nZQZ-119" value="1" style="edgeLabel;html=1;align=center;verticalAlign=middle;resizable=0;points=[];" vertex="1" connectable="0" parent="OWa3Dt7lXm-wcct0nZQZ-116">
          <mxGeometry x="-0.3899" relative="1" as="geometry">
            <mxPoint as="offset" />
          </mxGeometry>
        </mxCell>
        <mxCell id="OWa3Dt7lXm-wcct0nZQZ-7" value="HOTEIS" style="rounded=0;whiteSpace=wrap;html=1;" vertex="1" parent="1">
          <mxGeometry x="520" y="520" width="120" height="40" as="geometry" />
        </mxCell>
        <mxCell id="OWa3Dt7lXm-wcct0nZQZ-8" value="IGREJAS" style="rounded=0;whiteSpace=wrap;html=1;" vertex="1" parent="1">
          <mxGeometry x="-120" y="360" width="120" height="40" as="geometry" />
        </mxCell>
        <mxCell id="OWa3Dt7lXm-wcct0nZQZ-10" value="FUNDADORES" style="rounded=0;whiteSpace=wrap;html=1;" vertex="1" parent="1">
          <mxGeometry x="-600" y="360" width="120" height="40" as="geometry" />
        </mxCell>
        <mxCell id="OWa3Dt7lXm-wcct0nZQZ-11" value="Codigo" style="ellipse;whiteSpace=wrap;html=1;" vertex="1" parent="1">
          <mxGeometry x="770" y="460" width="120" height="50" as="geometry" />
        </mxCell>
        <mxCell id="OWa3Dt7lXm-wcct0nZQZ-12" value="nome" style="ellipse;whiteSpace=wrap;html=1;" vertex="1" parent="1">
          <mxGeometry x="710" y="400" width="120" height="50" as="geometry" />
        </mxCell>
        <mxCell id="OWa3Dt7lXm-wcct0nZQZ-13" value="Endereco" style="ellipse;whiteSpace=wrap;html=1;" vertex="1" parent="1">
          <mxGeometry x="710" y="640" width="120" height="50" as="geometry" />
        </mxCell>
        <mxCell id="OWa3Dt7lXm-wcct0nZQZ-15" value="Valor dos quartos" style="ellipse;whiteSpace=wrap;html=1;" vertex="1" parent="1">
          <mxGeometry x="580" y="650" width="120" height="50" as="geometry" />
        </mxCell>
        <mxCell id="OWa3Dt7lXm-wcct0nZQZ-16" value="Numero dos quartos" style="ellipse;whiteSpace=wrap;html=1;" vertex="1" parent="1">
          <mxGeometry x="770" y="580" width="120" height="50" as="geometry" />
        </mxCell>
        <mxCell id="OWa3Dt7lXm-wcct0nZQZ-17" value="Tipo dos quartos" style="ellipse;whiteSpace=wrap;html=1;" vertex="1" parent="1">
          <mxGeometry x="570" y="410" width="120" height="50" as="geometry" />
        </mxCell>
        <mxCell id="OWa3Dt7lXm-wcct0nZQZ-18" value="Categoria" style="ellipse;whiteSpace=wrap;html=1;" vertex="1" parent="1">
          <mxGeometry x="780" y="515" width="120" height="50" as="geometry" />
        </mxCell>
        <mxCell id="OWa3Dt7lXm-wcct0nZQZ-20" value="" style="endArrow=none;html=1;rounded=0;exitX=0.5;exitY=1;exitDx=0;exitDy=0;entryX=0.75;entryY=0;entryDx=0;entryDy=0;" edge="1" parent="1" source="OWa3Dt7lXm-wcct0nZQZ-17" target="OWa3Dt7lXm-wcct0nZQZ-7">
          <mxGeometry width="50" height="50" relative="1" as="geometry">
            <mxPoint x="540" y="640" as="sourcePoint" />
            <mxPoint x="590" y="590" as="targetPoint" />
          </mxGeometry>
        </mxCell>
        <mxCell id="OWa3Dt7lXm-wcct0nZQZ-21" value="" style="endArrow=none;html=1;rounded=0;entryX=0;entryY=0.5;entryDx=0;entryDy=0;exitX=1;exitY=0;exitDx=0;exitDy=0;" edge="1" parent="1" source="OWa3Dt7lXm-wcct0nZQZ-7" target="OWa3Dt7lXm-wcct0nZQZ-11">
          <mxGeometry width="50" height="50" relative="1" as="geometry">
            <mxPoint x="540" y="640" as="sourcePoint" />
            <mxPoint x="590" y="590" as="targetPoint" />
          </mxGeometry>
        </mxCell>
        <mxCell id="OWa3Dt7lXm-wcct0nZQZ-22" value="" style="endArrow=none;html=1;rounded=0;exitX=0;exitY=0.5;exitDx=0;exitDy=0;entryX=1;entryY=1;entryDx=0;entryDy=0;" edge="1" parent="1" source="OWa3Dt7lXm-wcct0nZQZ-16" target="OWa3Dt7lXm-wcct0nZQZ-7">
          <mxGeometry width="50" height="50" relative="1" as="geometry">
            <mxPoint x="540" y="640" as="sourcePoint" />
            <mxPoint x="590" y="590" as="targetPoint" />
          </mxGeometry>
        </mxCell>
        <mxCell id="OWa3Dt7lXm-wcct0nZQZ-23" value="" style="endArrow=none;html=1;rounded=0;exitX=0;exitY=0;exitDx=0;exitDy=0;entryX=0.75;entryY=1;entryDx=0;entryDy=0;" edge="1" parent="1" source="OWa3Dt7lXm-wcct0nZQZ-13" target="OWa3Dt7lXm-wcct0nZQZ-7">
          <mxGeometry width="50" height="50" relative="1" as="geometry">
            <mxPoint x="540" y="640" as="sourcePoint" />
            <mxPoint x="590" y="590" as="targetPoint" />
          </mxGeometry>
        </mxCell>
        <mxCell id="OWa3Dt7lXm-wcct0nZQZ-24" value="" style="endArrow=none;html=1;rounded=0;entryX=0;entryY=0.5;entryDx=0;entryDy=0;exitX=1;exitY=0.5;exitDx=0;exitDy=0;" edge="1" parent="1" source="OWa3Dt7lXm-wcct0nZQZ-7" target="OWa3Dt7lXm-wcct0nZQZ-18">
          <mxGeometry width="50" height="50" relative="1" as="geometry">
            <mxPoint x="540" y="640" as="sourcePoint" />
            <mxPoint x="590" y="590" as="targetPoint" />
          </mxGeometry>
        </mxCell>
        <mxCell id="OWa3Dt7lXm-wcct0nZQZ-25" value="" style="endArrow=none;html=1;rounded=0;entryX=0.5;entryY=1;entryDx=0;entryDy=0;exitX=0.5;exitY=0;exitDx=0;exitDy=0;" edge="1" parent="1" source="OWa3Dt7lXm-wcct0nZQZ-15" target="OWa3Dt7lXm-wcct0nZQZ-7">
          <mxGeometry width="50" height="50" relative="1" as="geometry">
            <mxPoint x="540" y="640" as="sourcePoint" />
            <mxPoint x="590" y="590" as="targetPoint" />
          </mxGeometry>
        </mxCell>
        <mxCell id="OWa3Dt7lXm-wcct0nZQZ-26" value="" style="endArrow=none;html=1;rounded=0;exitX=1;exitY=0;exitDx=0;exitDy=0;entryX=0;entryY=1;entryDx=0;entryDy=0;" edge="1" parent="1" source="OWa3Dt7lXm-wcct0nZQZ-7" target="OWa3Dt7lXm-wcct0nZQZ-12">
          <mxGeometry width="50" height="50" relative="1" as="geometry">
            <mxPoint x="620" y="490" as="sourcePoint" />
            <mxPoint x="620" y="530" as="targetPoint" />
          </mxGeometry>
        </mxCell>
        <mxCell id="OWa3Dt7lXm-wcct0nZQZ-27" value="Nome" style="ellipse;whiteSpace=wrap;html=1;" vertex="1" parent="1">
          <mxGeometry x="440" y="260" width="120" height="50" as="geometry" />
        </mxCell>
        <mxCell id="OWa3Dt7lXm-wcct0nZQZ-29" value="Estado" style="ellipse;whiteSpace=wrap;html=1;" vertex="1" parent="1">
          <mxGeometry x="310" y="260" width="120" height="50" as="geometry" />
        </mxCell>
        <mxCell id="OWa3Dt7lXm-wcct0nZQZ-30" value="Populacao" style="ellipse;whiteSpace=wrap;html=1;" vertex="1" parent="1">
          <mxGeometry x="520" y="310" width="120" height="50" as="geometry" />
        </mxCell>
        <mxCell id="OWa3Dt7lXm-wcct0nZQZ-31" value="Codigo" style="ellipse;whiteSpace=wrap;html=1;" vertex="1" parent="1">
          <mxGeometry x="240" y="310" width="120" height="50" as="geometry" />
        </mxCell>
        <mxCell id="OWa3Dt7lXm-wcct0nZQZ-32" value="" style="endArrow=none;html=1;rounded=0;exitX=0.5;exitY=1;exitDx=0;exitDy=0;entryX=0.75;entryY=0;entryDx=0;entryDy=0;" edge="1" parent="1" source="OWa3Dt7lXm-wcct0nZQZ-27" target="OWa3Dt7lXm-wcct0nZQZ-5">
          <mxGeometry width="50" height="50" relative="1" as="geometry">
            <mxPoint x="640" y="470" as="sourcePoint" />
            <mxPoint x="620" y="530" as="targetPoint" />
          </mxGeometry>
        </mxCell>
        <mxCell id="OWa3Dt7lXm-wcct0nZQZ-33" value="" style="endArrow=none;html=1;rounded=0;exitX=0;exitY=0.5;exitDx=0;exitDy=0;entryX=1;entryY=0;entryDx=0;entryDy=0;" edge="1" parent="1" source="OWa3Dt7lXm-wcct0nZQZ-30" target="OWa3Dt7lXm-wcct0nZQZ-5">
          <mxGeometry width="50" height="50" relative="1" as="geometry">
            <mxPoint x="650" y="480" as="sourcePoint" />
            <mxPoint x="630" y="540" as="targetPoint" />
          </mxGeometry>
        </mxCell>
        <mxCell id="OWa3Dt7lXm-wcct0nZQZ-34" value="" style="endArrow=none;html=1;rounded=0;exitX=0;exitY=0;exitDx=0;exitDy=0;entryX=1;entryY=0.5;entryDx=0;entryDy=0;" edge="1" parent="1" source="OWa3Dt7lXm-wcct0nZQZ-5" target="OWa3Dt7lXm-wcct0nZQZ-31">
          <mxGeometry width="50" height="50" relative="1" as="geometry">
            <mxPoint x="510" y="320" as="sourcePoint" />
            <mxPoint x="480" y="370" as="targetPoint" />
          </mxGeometry>
        </mxCell>
        <mxCell id="OWa3Dt7lXm-wcct0nZQZ-35" value="" style="endArrow=none;html=1;rounded=0;exitX=0.25;exitY=0;exitDx=0;exitDy=0;entryX=0.5;entryY=1;entryDx=0;entryDy=0;" edge="1" parent="1" source="OWa3Dt7lXm-wcct0nZQZ-5" target="OWa3Dt7lXm-wcct0nZQZ-29">
          <mxGeometry width="50" height="50" relative="1" as="geometry">
            <mxPoint x="510" y="320" as="sourcePoint" />
            <mxPoint x="480" y="370" as="targetPoint" />
          </mxGeometry>
        </mxCell>
        <mxCell id="OWa3Dt7lXm-wcct0nZQZ-36" value="Endereco" style="ellipse;whiteSpace=wrap;html=1;direction=east;" vertex="1" parent="1">
          <mxGeometry x="380" y="870" width="120" height="50" as="geometry" />
        </mxCell>
        <mxCell id="OWa3Dt7lXm-wcct0nZQZ-37" value="Nome" style="ellipse;whiteSpace=wrap;html=1;direction=east;" vertex="1" parent="1">
          <mxGeometry x="260" y="850" width="120" height="50" as="geometry" />
        </mxCell>
        <mxCell id="OWa3Dt7lXm-wcct0nZQZ-38" value="Categoria" style="ellipse;whiteSpace=wrap;html=1;direction=east;" vertex="1" parent="1">
          <mxGeometry x="490" y="840" width="120" height="50" as="geometry" />
        </mxCell>
        <mxCell id="OWa3Dt7lXm-wcct0nZQZ-39" value="Codigo" style="ellipse;whiteSpace=wrap;html=1;direction=east;" vertex="1" parent="1">
          <mxGeometry x="220" y="800" width="120" height="50" as="geometry" />
        </mxCell>
        <mxCell id="OWa3Dt7lXm-wcct0nZQZ-40" value="" style="endArrow=none;html=1;rounded=0;exitX=0.5;exitY=0;exitDx=0;exitDy=0;entryX=0.5;entryY=1;entryDx=0;entryDy=0;" edge="1" parent="1" source="OWa3Dt7lXm-wcct0nZQZ-36" target="OWa3Dt7lXm-wcct0nZQZ-3">
          <mxGeometry width="50" height="50" relative="1" as="geometry">
            <mxPoint x="650" y="1020" as="sourcePoint" />
            <mxPoint x="480" y="910" as="targetPoint" />
          </mxGeometry>
        </mxCell>
        <mxCell id="OWa3Dt7lXm-wcct0nZQZ-41" value="" style="endArrow=none;html=1;rounded=0;exitX=0;exitY=0;exitDx=0;exitDy=0;entryX=0.75;entryY=1;entryDx=0;entryDy=0;" edge="1" parent="1" source="OWa3Dt7lXm-wcct0nZQZ-38" target="OWa3Dt7lXm-wcct0nZQZ-3">
          <mxGeometry width="50" height="50" relative="1" as="geometry">
            <mxPoint x="660" y="1030" as="sourcePoint" />
            <mxPoint x="510" y="910" as="targetPoint" />
          </mxGeometry>
        </mxCell>
        <mxCell id="OWa3Dt7lXm-wcct0nZQZ-42" value="" style="endArrow=none;html=1;rounded=0;exitX=0;exitY=1;exitDx=0;exitDy=0;entryX=1;entryY=0;entryDx=0;entryDy=0;" edge="1" parent="1" target="OWa3Dt7lXm-wcct0nZQZ-39" source="OWa3Dt7lXm-wcct0nZQZ-3">
          <mxGeometry width="50" height="50" relative="1" as="geometry">
            <mxPoint x="390" y="910" as="sourcePoint" />
            <mxPoint x="490" y="920" as="targetPoint" />
          </mxGeometry>
        </mxCell>
        <mxCell id="OWa3Dt7lXm-wcct0nZQZ-43" value="" style="endArrow=none;html=1;rounded=0;exitX=0.25;exitY=1;exitDx=0;exitDy=0;entryX=0.5;entryY=0;entryDx=0;entryDy=0;" edge="1" parent="1" target="OWa3Dt7lXm-wcct0nZQZ-37" source="OWa3Dt7lXm-wcct0nZQZ-3">
          <mxGeometry width="50" height="50" relative="1" as="geometry">
            <mxPoint x="420" y="910" as="sourcePoint" />
            <mxPoint x="490" y="920" as="targetPoint" />
          </mxGeometry>
        </mxCell>
        <mxCell id="OWa3Dt7lXm-wcct0nZQZ-44" value="Data" style="ellipse;whiteSpace=wrap;html=1;" vertex="1" parent="1">
          <mxGeometry x="10" y="260" width="120" height="50" as="geometry" />
        </mxCell>
        <mxCell id="OWa3Dt7lXm-wcct0nZQZ-45" value="Endereco" style="ellipse;whiteSpace=wrap;html=1;" vertex="1" parent="1">
          <mxGeometry x="-120" y="240" width="120" height="50" as="geometry" />
        </mxCell>
        <mxCell id="OWa3Dt7lXm-wcct0nZQZ-46" value="Estilo_de_construcao" style="ellipse;whiteSpace=wrap;html=1;" vertex="1" parent="1">
          <mxGeometry x="40" y="320" width="120" height="50" as="geometry" />
        </mxCell>
        <mxCell id="OWa3Dt7lXm-wcct0nZQZ-47" value="Descricao" style="ellipse;whiteSpace=wrap;html=1;" vertex="1" parent="1">
          <mxGeometry x="-240" y="260" width="120" height="50" as="geometry" />
        </mxCell>
        <mxCell id="OWa3Dt7lXm-wcct0nZQZ-48" value="" style="endArrow=none;html=1;rounded=0;exitX=0;exitY=1;exitDx=0;exitDy=0;entryX=0.75;entryY=0;entryDx=0;entryDy=0;" edge="1" parent="1" source="OWa3Dt7lXm-wcct0nZQZ-44" target="OWa3Dt7lXm-wcct0nZQZ-8">
          <mxGeometry width="50" height="50" relative="1" as="geometry">
            <mxPoint x="200" y="460" as="sourcePoint" />
            <mxPoint x="30" y="350" as="targetPoint" />
          </mxGeometry>
        </mxCell>
        <mxCell id="OWa3Dt7lXm-wcct0nZQZ-49" value="" style="endArrow=none;html=1;rounded=0;exitX=0;exitY=0.5;exitDx=0;exitDy=0;entryX=1;entryY=0;entryDx=0;entryDy=0;" edge="1" parent="1" source="OWa3Dt7lXm-wcct0nZQZ-46" target="OWa3Dt7lXm-wcct0nZQZ-8">
          <mxGeometry width="50" height="50" relative="1" as="geometry">
            <mxPoint x="210" y="470" as="sourcePoint" />
            <mxPoint x="60" y="350" as="targetPoint" />
          </mxGeometry>
        </mxCell>
        <mxCell id="OWa3Dt7lXm-wcct0nZQZ-50" value="" style="endArrow=none;html=1;rounded=0;exitX=0.25;exitY=0;exitDx=0;exitDy=0;entryX=1;entryY=1;entryDx=0;entryDy=0;" edge="1" parent="1" target="OWa3Dt7lXm-wcct0nZQZ-47" source="OWa3Dt7lXm-wcct0nZQZ-8">
          <mxGeometry width="50" height="50" relative="1" as="geometry">
            <mxPoint x="-60" y="350" as="sourcePoint" />
            <mxPoint x="40" y="360" as="targetPoint" />
          </mxGeometry>
        </mxCell>
        <mxCell id="OWa3Dt7lXm-wcct0nZQZ-51" value="" style="endArrow=none;html=1;rounded=0;exitX=0.5;exitY=0;exitDx=0;exitDy=0;entryX=0.5;entryY=1;entryDx=0;entryDy=0;" edge="1" parent="1" target="OWa3Dt7lXm-wcct0nZQZ-45" source="OWa3Dt7lXm-wcct0nZQZ-8">
          <mxGeometry width="50" height="50" relative="1" as="geometry">
            <mxPoint x="-30" y="350" as="sourcePoint" />
            <mxPoint x="40" y="360" as="targetPoint" />
          </mxGeometry>
        </mxCell>
        <mxCell id="OWa3Dt7lXm-wcct0nZQZ-62" value="CASAS_DE_SHOW" style="rounded=0;whiteSpace=wrap;html=1;" vertex="1" parent="1">
          <mxGeometry x="-140" y="760" width="120" height="40" as="geometry" />
        </mxCell>
        <mxCell id="OWa3Dt7lXm-wcct0nZQZ-63" value="endereco" style="ellipse;whiteSpace=wrap;html=1;direction=east;" vertex="1" parent="1">
          <mxGeometry x="-140" y="860" width="120" height="50" as="geometry" />
        </mxCell>
        <mxCell id="OWa3Dt7lXm-wcct0nZQZ-64" value="Descricao" style="ellipse;whiteSpace=wrap;html=1;direction=east;" vertex="1" parent="1">
          <mxGeometry x="-260" y="850" width="120" height="50" as="geometry" />
        </mxCell>
        <mxCell id="OWa3Dt7lXm-wcct0nZQZ-65" value="Dia_de_fechamento" style="ellipse;whiteSpace=wrap;html=1;direction=east;" vertex="1" parent="1">
          <mxGeometry x="-20" y="850" width="120" height="50" as="geometry" />
        </mxCell>
        <mxCell id="OWa3Dt7lXm-wcct0nZQZ-66" value="Codigo" style="ellipse;whiteSpace=wrap;html=1;direction=east;" vertex="1" parent="1">
          <mxGeometry x="-290" y="790" width="120" height="50" as="geometry" />
        </mxCell>
        <mxCell id="OWa3Dt7lXm-wcct0nZQZ-67" value="" style="endArrow=none;html=1;rounded=0;exitX=0.5;exitY=0;exitDx=0;exitDy=0;entryX=0.5;entryY=1;entryDx=0;entryDy=0;" edge="1" parent="1" source="OWa3Dt7lXm-wcct0nZQZ-63" target="OWa3Dt7lXm-wcct0nZQZ-62">
          <mxGeometry width="50" height="50" relative="1" as="geometry">
            <mxPoint x="90" y="1030" as="sourcePoint" />
            <mxPoint x="-120" y="810" as="targetPoint" />
          </mxGeometry>
        </mxCell>
        <mxCell id="OWa3Dt7lXm-wcct0nZQZ-68" value="" style="endArrow=none;html=1;rounded=0;exitX=0;exitY=0;exitDx=0;exitDy=0;entryX=0.75;entryY=1;entryDx=0;entryDy=0;" edge="1" parent="1" source="OWa3Dt7lXm-wcct0nZQZ-65" target="OWa3Dt7lXm-wcct0nZQZ-62">
          <mxGeometry width="50" height="50" relative="1" as="geometry">
            <mxPoint x="100" y="1040" as="sourcePoint" />
            <mxPoint x="-90" y="810" as="targetPoint" />
          </mxGeometry>
        </mxCell>
        <mxCell id="OWa3Dt7lXm-wcct0nZQZ-69" value="" style="endArrow=none;html=1;rounded=0;exitX=0;exitY=1;exitDx=0;exitDy=0;entryX=1;entryY=0.5;entryDx=0;entryDy=0;" edge="1" parent="1" source="OWa3Dt7lXm-wcct0nZQZ-62" target="OWa3Dt7lXm-wcct0nZQZ-66">
          <mxGeometry width="50" height="50" relative="1" as="geometry">
            <mxPoint x="-150" y="810" as="sourcePoint" />
            <mxPoint x="-70" y="930" as="targetPoint" />
          </mxGeometry>
        </mxCell>
        <mxCell id="OWa3Dt7lXm-wcct0nZQZ-70" value="" style="endArrow=none;html=1;rounded=0;exitX=0.25;exitY=1;exitDx=0;exitDy=0;entryX=0.5;entryY=0;entryDx=0;entryDy=0;" edge="1" parent="1" source="OWa3Dt7lXm-wcct0nZQZ-62" target="OWa3Dt7lXm-wcct0nZQZ-64">
          <mxGeometry width="50" height="50" relative="1" as="geometry">
            <mxPoint x="-120" y="810" as="sourcePoint" />
            <mxPoint x="-70" y="930" as="targetPoint" />
          </mxGeometry>
        </mxCell>
        <mxCell id="OWa3Dt7lXm-wcct0nZQZ-79" value="horario_de_inicio" style="ellipse;whiteSpace=wrap;html=1;direction=east;" vertex="1" parent="1">
          <mxGeometry x="20" y="790" width="120" height="50" as="geometry" />
        </mxCell>
        <mxCell id="OWa3Dt7lXm-wcct0nZQZ-80" value="" style="endArrow=none;html=1;rounded=0;exitX=1;exitY=1;exitDx=0;exitDy=0;entryX=0;entryY=0.5;entryDx=0;entryDy=0;" edge="1" parent="1" source="OWa3Dt7lXm-wcct0nZQZ-62" target="OWa3Dt7lXm-wcct0nZQZ-79">
          <mxGeometry width="50" height="50" relative="1" as="geometry">
            <mxPoint x="-130" y="810" as="sourcePoint" />
            <mxPoint x="-188" y="837" as="targetPoint" />
          </mxGeometry>
        </mxCell>
        <mxCell id="OWa3Dt7lXm-wcct0nZQZ-81" value="MUSEUS" style="rounded=0;whiteSpace=wrap;html=1;" vertex="1" parent="1">
          <mxGeometry x="-600.64" y="760.28" width="120" height="40" as="geometry" />
        </mxCell>
        <mxCell id="OWa3Dt7lXm-wcct0nZQZ-82" value="endereco" style="ellipse;whiteSpace=wrap;html=1;direction=east;" vertex="1" parent="1">
          <mxGeometry x="-611.64" y="862.8299999999999" width="120" height="50" as="geometry" />
        </mxCell>
        <mxCell id="OWa3Dt7lXm-wcct0nZQZ-83" value="Descricao" style="ellipse;whiteSpace=wrap;html=1;direction=east;" vertex="1" parent="1">
          <mxGeometry x="-731.64" y="852.8299999999999" width="120" height="50" as="geometry" />
        </mxCell>
        <mxCell id="OWa3Dt7lXm-wcct0nZQZ-84" value="Data_de_fundacao" style="ellipse;whiteSpace=wrap;html=1;direction=east;" vertex="1" parent="1">
          <mxGeometry x="-491.64" y="852.8299999999999" width="120" height="50" as="geometry" />
        </mxCell>
        <mxCell id="OWa3Dt7lXm-wcct0nZQZ-85" value="Codigo" style="ellipse;whiteSpace=wrap;html=1;direction=east;" vertex="1" parent="1">
          <mxGeometry x="-761.64" y="792.8299999999999" width="120" height="50" as="geometry" />
        </mxCell>
        <mxCell id="OWa3Dt7lXm-wcct0nZQZ-86" value="" style="endArrow=none;html=1;rounded=0;exitX=0.5;exitY=0;exitDx=0;exitDy=0;entryX=0.5;entryY=1;entryDx=0;entryDy=0;" edge="1" parent="1" source="OWa3Dt7lXm-wcct0nZQZ-82" target="OWa3Dt7lXm-wcct0nZQZ-81">
          <mxGeometry width="50" height="50" relative="1" as="geometry">
            <mxPoint x="-381.64" y="1032.83" as="sourcePoint" />
            <mxPoint x="-591.64" y="812.8299999999999" as="targetPoint" />
          </mxGeometry>
        </mxCell>
        <mxCell id="OWa3Dt7lXm-wcct0nZQZ-87" value="" style="endArrow=none;html=1;rounded=0;exitX=0;exitY=0;exitDx=0;exitDy=0;entryX=0.75;entryY=1;entryDx=0;entryDy=0;" edge="1" parent="1" source="OWa3Dt7lXm-wcct0nZQZ-84" target="OWa3Dt7lXm-wcct0nZQZ-81">
          <mxGeometry width="50" height="50" relative="1" as="geometry">
            <mxPoint x="-371.64" y="1042.83" as="sourcePoint" />
            <mxPoint x="-561.64" y="812.8299999999999" as="targetPoint" />
          </mxGeometry>
        </mxCell>
        <mxCell id="OWa3Dt7lXm-wcct0nZQZ-88" value="" style="endArrow=none;html=1;rounded=0;exitX=0;exitY=1;exitDx=0;exitDy=0;entryX=1;entryY=0.5;entryDx=0;entryDy=0;" edge="1" parent="1" source="OWa3Dt7lXm-wcct0nZQZ-81" target="OWa3Dt7lXm-wcct0nZQZ-85">
          <mxGeometry width="50" height="50" relative="1" as="geometry">
            <mxPoint x="-621.64" y="812.8299999999999" as="sourcePoint" />
            <mxPoint x="-541.64" y="932.8299999999999" as="targetPoint" />
          </mxGeometry>
        </mxCell>
        <mxCell id="OWa3Dt7lXm-wcct0nZQZ-89" value="" style="endArrow=none;html=1;rounded=0;exitX=0.25;exitY=1;exitDx=0;exitDy=0;entryX=0.5;entryY=0;entryDx=0;entryDy=0;" edge="1" parent="1" source="OWa3Dt7lXm-wcct0nZQZ-81" target="OWa3Dt7lXm-wcct0nZQZ-83">
          <mxGeometry width="50" height="50" relative="1" as="geometry">
            <mxPoint x="-591.64" y="812.8299999999999" as="sourcePoint" />
            <mxPoint x="-541.64" y="932.8299999999999" as="targetPoint" />
          </mxGeometry>
        </mxCell>
        <mxCell id="OWa3Dt7lXm-wcct0nZQZ-90" value="Numero_de_salas" style="ellipse;whiteSpace=wrap;html=1;direction=east;" vertex="1" parent="1">
          <mxGeometry x="-451.64" y="792.8299999999999" width="120" height="50" as="geometry" />
        </mxCell>
        <mxCell id="OWa3Dt7lXm-wcct0nZQZ-91" value="" style="endArrow=none;html=1;rounded=0;exitX=1;exitY=1;exitDx=0;exitDy=0;entryX=0;entryY=0.5;entryDx=0;entryDy=0;" edge="1" parent="1" source="OWa3Dt7lXm-wcct0nZQZ-81" target="OWa3Dt7lXm-wcct0nZQZ-90">
          <mxGeometry width="50" height="50" relative="1" as="geometry">
            <mxPoint x="-601.64" y="812.8299999999999" as="sourcePoint" />
            <mxPoint x="-659.64" y="839.8299999999999" as="targetPoint" />
          </mxGeometry>
        </mxCell>
        <mxCell id="OWa3Dt7lXm-wcct0nZQZ-92" value="Codigo" style="ellipse;whiteSpace=wrap;html=1;" vertex="1" parent="1">
          <mxGeometry x="-270" y="320" width="120" height="50" as="geometry" />
        </mxCell>
        <mxCell id="OWa3Dt7lXm-wcct0nZQZ-93" value="" style="endArrow=none;html=1;rounded=0;exitX=0;exitY=0;exitDx=0;exitDy=0;entryX=1;entryY=0.5;entryDx=0;entryDy=0;" edge="1" parent="1" source="OWa3Dt7lXm-wcct0nZQZ-8" target="OWa3Dt7lXm-wcct0nZQZ-92">
          <mxGeometry width="50" height="50" relative="1" as="geometry">
            <mxPoint x="50" y="355" as="sourcePoint" />
            <mxPoint x="10" y="370" as="targetPoint" />
          </mxGeometry>
        </mxCell>
        <mxCell id="OWa3Dt7lXm-wcct0nZQZ-95" value="data_da_morte" style="ellipse;whiteSpace=wrap;html=1;" vertex="1" parent="1">
          <mxGeometry x="-473" y="220" width="120" height="50" as="geometry" />
        </mxCell>
        <mxCell id="OWa3Dt7lXm-wcct0nZQZ-96" value="Data_de_nascimento" style="ellipse;whiteSpace=wrap;html=1;" vertex="1" parent="1">
          <mxGeometry x="-600" y="200" width="120" height="50" as="geometry" />
        </mxCell>
        <mxCell id="OWa3Dt7lXm-wcct0nZQZ-97" value="Nacionalidade" style="ellipse;whiteSpace=wrap;html=1;" vertex="1" parent="1">
          <mxGeometry x="-430" y="280" width="120" height="50" as="geometry" />
        </mxCell>
        <mxCell id="OWa3Dt7lXm-wcct0nZQZ-98" value="Nome" style="ellipse;whiteSpace=wrap;html=1;" vertex="1" parent="1">
          <mxGeometry x="-730" y="220" width="120" height="50" as="geometry" />
        </mxCell>
        <mxCell id="OWa3Dt7lXm-wcct0nZQZ-99" value="" style="endArrow=none;html=1;rounded=0;exitX=0;exitY=1;exitDx=0;exitDy=0;entryX=0.75;entryY=0;entryDx=0;entryDy=0;" edge="1" parent="1" source="OWa3Dt7lXm-wcct0nZQZ-95">
          <mxGeometry width="50" height="50" relative="1" as="geometry">
            <mxPoint x="-280" y="460" as="sourcePoint" />
            <mxPoint x="-510" y="360" as="targetPoint" />
          </mxGeometry>
        </mxCell>
        <mxCell id="OWa3Dt7lXm-wcct0nZQZ-100" value="" style="endArrow=none;html=1;rounded=0;exitX=0;exitY=0.5;exitDx=0;exitDy=0;entryX=1;entryY=0;entryDx=0;entryDy=0;" edge="1" parent="1" source="OWa3Dt7lXm-wcct0nZQZ-97">
          <mxGeometry width="50" height="50" relative="1" as="geometry">
            <mxPoint x="-440" y="345" as="sourcePoint" />
            <mxPoint x="-480" y="360" as="targetPoint" />
          </mxGeometry>
        </mxCell>
        <mxCell id="OWa3Dt7lXm-wcct0nZQZ-101" value="" style="endArrow=none;html=1;rounded=0;exitX=0.25;exitY=0;exitDx=0;exitDy=0;entryX=1;entryY=1;entryDx=0;entryDy=0;" edge="1" parent="1" target="OWa3Dt7lXm-wcct0nZQZ-98">
          <mxGeometry width="50" height="50" relative="1" as="geometry">
            <mxPoint x="-570" y="360" as="sourcePoint" />
            <mxPoint x="-440" y="360" as="targetPoint" />
          </mxGeometry>
        </mxCell>
        <mxCell id="OWa3Dt7lXm-wcct0nZQZ-102" value="" style="endArrow=none;html=1;rounded=0;exitX=0.5;exitY=0;exitDx=0;exitDy=0;entryX=0.5;entryY=1;entryDx=0;entryDy=0;" edge="1" parent="1" target="OWa3Dt7lXm-wcct0nZQZ-96">
          <mxGeometry width="50" height="50" relative="1" as="geometry">
            <mxPoint x="-540" y="360" as="sourcePoint" />
            <mxPoint x="-440" y="360" as="targetPoint" />
          </mxGeometry>
        </mxCell>
        <mxCell id="OWa3Dt7lXm-wcct0nZQZ-103" value="Codigo" style="ellipse;whiteSpace=wrap;html=1;" vertex="1" parent="1">
          <mxGeometry x="-790" y="280" width="120" height="50" as="geometry" />
        </mxCell>
        <mxCell id="OWa3Dt7lXm-wcct0nZQZ-104" value="" style="endArrow=none;html=1;rounded=0;exitX=0;exitY=0;exitDx=0;exitDy=0;entryX=1;entryY=0.5;entryDx=0;entryDy=0;" edge="1" parent="1" target="OWa3Dt7lXm-wcct0nZQZ-103">
          <mxGeometry width="50" height="50" relative="1" as="geometry">
            <mxPoint x="-600" y="360" as="sourcePoint" />
            <mxPoint x="-470" y="370" as="targetPoint" />
          </mxGeometry>
        </mxCell>
        <mxCell id="OWa3Dt7lXm-wcct0nZQZ-105" value="Profissao" style="ellipse;whiteSpace=wrap;html=1;" vertex="1" parent="1">
          <mxGeometry x="-430" y="340" width="120" height="50" as="geometry" />
        </mxCell>
        <mxCell id="OWa3Dt7lXm-wcct0nZQZ-107" value="" style="endArrow=none;html=1;rounded=0;exitX=1;exitY=0.5;exitDx=0;exitDy=0;entryX=0;entryY=0.5;entryDx=0;entryDy=0;" edge="1" parent="1" source="OWa3Dt7lXm-wcct0nZQZ-10" target="OWa3Dt7lXm-wcct0nZQZ-105">
          <mxGeometry width="50" height="50" relative="1" as="geometry">
            <mxPoint x="-590" y="370" as="sourcePoint" />
            <mxPoint x="-660" y="315" as="targetPoint" />
          </mxGeometry>
        </mxCell>
        <mxCell id="OWa3Dt7lXm-wcct0nZQZ-108" value="Especialidade" style="ellipse;whiteSpace=wrap;html=1;direction=east;" vertex="1" parent="1">
          <mxGeometry x="530" y="790" width="120" height="50" as="geometry" />
        </mxCell>
        <mxCell id="OWa3Dt7lXm-wcct0nZQZ-109" value="" style="endArrow=none;html=1;rounded=0;exitX=0;exitY=0.5;exitDx=0;exitDy=0;entryX=1;entryY=1;entryDx=0;entryDy=0;" edge="1" parent="1" source="OWa3Dt7lXm-wcct0nZQZ-108" target="OWa3Dt7lXm-wcct0nZQZ-3">
          <mxGeometry width="50" height="50" relative="1" as="geometry">
            <mxPoint x="390" y="810" as="sourcePoint" />
            <mxPoint x="333" y="817" as="targetPoint" />
          </mxGeometry>
        </mxCell>
        <mxCell id="OWa3Dt7lXm-wcct0nZQZ-115" value="Atribuir" style="rhombus;whiteSpace=wrap;html=1;rounded=0;" vertex="1" parent="1">
          <mxGeometry x="480" y="630" width="50" height="50" as="geometry" />
        </mxCell>
        <mxCell id="OWa3Dt7lXm-wcct0nZQZ-120" style="rounded=0;orthogonalLoop=1;jettySize=auto;html=1;entryX=0;entryY=0.5;entryDx=0;entryDy=0;endArrow=none;startFill=0;strokeWidth=1;exitX=1;exitY=0;exitDx=0;exitDy=0;" edge="1" parent="1" target="OWa3Dt7lXm-wcct0nZQZ-125" source="OWa3Dt7lXm-wcct0nZQZ-62">
          <mxGeometry relative="1" as="geometry">
            <mxPoint x="70" y="735" as="sourcePoint" />
          </mxGeometry>
        </mxCell>
        <mxCell id="OWa3Dt7lXm-wcct0nZQZ-121" value="1" style="edgeLabel;html=1;align=center;verticalAlign=middle;resizable=0;points=[];" vertex="1" connectable="0" parent="OWa3Dt7lXm-wcct0nZQZ-120">
          <mxGeometry x="-0.1711" y="1" relative="1" as="geometry">
            <mxPoint as="offset" />
          </mxGeometry>
        </mxCell>
        <mxCell id="OWa3Dt7lXm-wcct0nZQZ-122" value="" style="rounded=0;orthogonalLoop=1;jettySize=auto;html=1;endArrow=none;startFill=0;strokeWidth=1;entryX=1;entryY=0.5;entryDx=0;entryDy=0;exitX=0;exitY=0;exitDx=0;exitDy=0;" edge="1" parent="1" target="OWa3Dt7lXm-wcct0nZQZ-125" source="OWa3Dt7lXm-wcct0nZQZ-3">
          <mxGeometry relative="1" as="geometry">
            <mxPoint x="187" y="535" as="sourcePoint" />
          </mxGeometry>
        </mxCell>
        <mxCell id="OWa3Dt7lXm-wcct0nZQZ-123" value="1" style="edgeLabel;html=1;align=center;verticalAlign=middle;resizable=0;points=[];" vertex="1" connectable="0" parent="OWa3Dt7lXm-wcct0nZQZ-122">
          <mxGeometry x="-0.3899" relative="1" as="geometry">
            <mxPoint as="offset" />
          </mxGeometry>
        </mxCell>
        <mxCell id="OWa3Dt7lXm-wcct0nZQZ-125" value="Possuir" style="rhombus;whiteSpace=wrap;html=1;rounded=0;" vertex="1" parent="1">
          <mxGeometry x="160" y="734" width="50" height="50" as="geometry" />
        </mxCell>
        <mxCell id="OWa3Dt7lXm-wcct0nZQZ-130" style="rounded=0;orthogonalLoop=1;jettySize=auto;html=1;entryX=0.5;entryY=1;entryDx=0;entryDy=0;endArrow=none;startFill=0;strokeWidth=1;exitX=0.5;exitY=0;exitDx=0;exitDy=0;" edge="1" parent="1" target="OWa3Dt7lXm-wcct0nZQZ-134" source="OWa3Dt7lXm-wcct0nZQZ-81">
          <mxGeometry relative="1" as="geometry">
            <mxPoint x="-955" y="441" as="sourcePoint" />
          </mxGeometry>
        </mxCell>
        <mxCell id="OWa3Dt7lXm-wcct0nZQZ-131" value="N" style="edgeLabel;html=1;align=center;verticalAlign=middle;resizable=0;points=[];" vertex="1" connectable="0" parent="OWa3Dt7lXm-wcct0nZQZ-130">
          <mxGeometry x="-0.1711" y="1" relative="1" as="geometry">
            <mxPoint as="offset" />
          </mxGeometry>
        </mxCell>
        <mxCell id="OWa3Dt7lXm-wcct0nZQZ-132" value="" style="rounded=0;orthogonalLoop=1;jettySize=auto;html=1;endArrow=none;startFill=0;strokeWidth=1;entryX=0.5;entryY=0;entryDx=0;entryDy=0;exitX=0.5;exitY=1;exitDx=0;exitDy=0;" edge="1" parent="1" target="OWa3Dt7lXm-wcct0nZQZ-134" source="OWa3Dt7lXm-wcct0nZQZ-10">
          <mxGeometry relative="1" as="geometry">
            <mxPoint x="-735" y="250" as="sourcePoint" />
          </mxGeometry>
        </mxCell>
        <mxCell id="OWa3Dt7lXm-wcct0nZQZ-133" value="N" style="edgeLabel;html=1;align=center;verticalAlign=middle;resizable=0;points=[];" vertex="1" connectable="0" parent="OWa3Dt7lXm-wcct0nZQZ-132">
          <mxGeometry x="-0.3899" relative="1" as="geometry">
            <mxPoint as="offset" />
          </mxGeometry>
        </mxCell>
        <mxCell id="OWa3Dt7lXm-wcct0nZQZ-134" value="Fundar" style="rhombus;whiteSpace=wrap;html=1;rounded=0;" vertex="1" parent="1">
          <mxGeometry x="-565.64" y="559.5" width="50" height="50" as="geometry" />
        </mxCell>
        <mxCell id="OWa3Dt7lXm-wcct0nZQZ-169" value="Status" style="ellipse;whiteSpace=wrap;html=1;direction=east;" vertex="1" parent="1">
          <mxGeometry x="125" y="660" width="120" height="50" as="geometry" />
        </mxCell>
        <mxCell id="OWa3Dt7lXm-wcct0nZQZ-170" value="" style="endArrow=none;html=1;rounded=0;exitX=0.5;exitY=1;exitDx=0;exitDy=0;entryX=0.5;entryY=0;entryDx=0;entryDy=0;" edge="1" parent="1" source="OWa3Dt7lXm-wcct0nZQZ-169" target="OWa3Dt7lXm-wcct0nZQZ-125">
          <mxGeometry width="50" height="50" relative="1" as="geometry">
            <mxPoint x="-10" y="810" as="sourcePoint" />
            <mxPoint x="30" y="825" as="targetPoint" />
          </mxGeometry>
        </mxCell>
        <mxCell id="OWa3Dt7lXm-wcct0nZQZ-173" value="Status" style="ellipse;whiteSpace=wrap;html=1;direction=east;" vertex="1" parent="1">
          <mxGeometry x="500" y="700" width="120" height="50" as="geometry" />
        </mxCell>
        <mxCell id="OWa3Dt7lXm-wcct0nZQZ-174" value="" style="endArrow=none;html=1;rounded=0;exitX=0.5;exitY=0;exitDx=0;exitDy=0;entryX=1;entryY=1;entryDx=0;entryDy=0;" edge="1" parent="1" source="OWa3Dt7lXm-wcct0nZQZ-173" target="OWa3Dt7lXm-wcct0nZQZ-115">
          <mxGeometry width="50" height="50" relative="1" as="geometry">
            <mxPoint x="347" y="820" as="sourcePoint" />
            <mxPoint x="542" y="744" as="targetPoint" />
          </mxGeometry>
        </mxCell>
        <mxCell id="OWa3Dt7lXm-wcct0nZQZ-215" value="Clientes" style="rounded=0;whiteSpace=wrap;html=1;" vertex="1" parent="1">
          <mxGeometry x="-280" y="490" width="120" height="40" as="geometry" />
        </mxCell>
        <mxCell id="OWa3Dt7lXm-wcct0nZQZ-216" value="CPF" style="ellipse;whiteSpace=wrap;html=1;direction=east;" vertex="1" parent="1">
          <mxGeometry x="-430" y="535" width="120" height="50" as="geometry" />
        </mxCell>
        <mxCell id="OWa3Dt7lXm-wcct0nZQZ-217" value="Nome" style="ellipse;whiteSpace=wrap;html=1;direction=east;" vertex="1" parent="1">
          <mxGeometry x="-435.64" y="480" width="120" height="50" as="geometry" />
        </mxCell>
        <mxCell id="OWa3Dt7lXm-wcct0nZQZ-218" value="Codigo" style="ellipse;whiteSpace=wrap;html=1;direction=east;" vertex="1" parent="1">
          <mxGeometry x="-435.64" y="426" width="120" height="50" as="geometry" />
        </mxCell>
        <mxCell id="OWa3Dt7lXm-wcct0nZQZ-219" value="" style="endArrow=none;html=1;rounded=0;exitX=1;exitY=0.5;exitDx=0;exitDy=0;entryX=0;entryY=1;entryDx=0;entryDy=0;" edge="1" parent="1" source="OWa3Dt7lXm-wcct0nZQZ-216" target="OWa3Dt7lXm-wcct0nZQZ-215">
          <mxGeometry width="50" height="50" relative="1" as="geometry">
            <mxPoint x="-95.64" y="1005" as="sourcePoint" />
            <mxPoint x="-305.64" y="465" as="targetPoint" />
          </mxGeometry>
        </mxCell>
        <mxCell id="OWa3Dt7lXm-wcct0nZQZ-222" value="" style="endArrow=none;html=1;rounded=0;exitX=1;exitY=0.5;exitDx=0;exitDy=0;entryX=0;entryY=0.5;entryDx=0;entryDy=0;" edge="1" parent="1" source="OWa3Dt7lXm-wcct0nZQZ-217" target="OWa3Dt7lXm-wcct0nZQZ-215">
          <mxGeometry width="50" height="50" relative="1" as="geometry">
            <mxPoint x="-300" y="570" as="sourcePoint" />
            <mxPoint x="-200" y="540" as="targetPoint" />
          </mxGeometry>
        </mxCell>
        <mxCell id="OWa3Dt7lXm-wcct0nZQZ-223" value="" style="endArrow=none;html=1;rounded=0;exitX=1;exitY=0.5;exitDx=0;exitDy=0;entryX=0;entryY=0;entryDx=0;entryDy=0;" edge="1" parent="1" source="OWa3Dt7lXm-wcct0nZQZ-218" target="OWa3Dt7lXm-wcct0nZQZ-215">
          <mxGeometry width="50" height="50" relative="1" as="geometry">
            <mxPoint x="-306" y="515" as="sourcePoint" />
            <mxPoint x="-200" y="520" as="targetPoint" />
          </mxGeometry>
        </mxCell>
        <mxCell id="OWa3Dt7lXm-wcct0nZQZ-234" style="rounded=0;orthogonalLoop=1;jettySize=auto;html=1;entryX=0;entryY=1;entryDx=0;entryDy=0;endArrow=none;startFill=0;strokeWidth=1;exitX=1;exitY=0;exitDx=0;exitDy=0;" edge="1" parent="1" target="OWa3Dt7lXm-wcct0nZQZ-238" source="OWa3Dt7lXm-wcct0nZQZ-81">
          <mxGeometry relative="1" as="geometry">
            <mxPoint x="-511" y="790" as="sourcePoint" />
          </mxGeometry>
        </mxCell>
        <mxCell id="OWa3Dt7lXm-wcct0nZQZ-235" value="N" style="edgeLabel;html=1;align=center;verticalAlign=middle;resizable=0;points=[];" vertex="1" connectable="0" parent="OWa3Dt7lXm-wcct0nZQZ-234">
          <mxGeometry x="-0.1711" y="1" relative="1" as="geometry">
            <mxPoint as="offset" />
          </mxGeometry>
        </mxCell>
        <mxCell id="OWa3Dt7lXm-wcct0nZQZ-236" value="" style="rounded=0;orthogonalLoop=1;jettySize=auto;html=1;endArrow=none;startFill=0;strokeWidth=1;entryX=1;entryY=0;entryDx=0;entryDy=0;exitX=0.5;exitY=1;exitDx=0;exitDy=0;" edge="1" parent="1" target="OWa3Dt7lXm-wcct0nZQZ-238" source="OWa3Dt7lXm-wcct0nZQZ-215">
          <mxGeometry relative="1" as="geometry">
            <mxPoint x="-510" y="430" as="sourcePoint" />
          </mxGeometry>
        </mxCell>
        <mxCell id="OWa3Dt7lXm-wcct0nZQZ-237" value="N" style="edgeLabel;html=1;align=center;verticalAlign=middle;resizable=0;points=[];" vertex="1" connectable="0" parent="OWa3Dt7lXm-wcct0nZQZ-236">
          <mxGeometry x="-0.3899" relative="1" as="geometry">
            <mxPoint as="offset" />
          </mxGeometry>
        </mxCell>
        <mxCell id="OWa3Dt7lXm-wcct0nZQZ-238" value="Visitar" style="rhombus;whiteSpace=wrap;html=1;rounded=0;" vertex="1" parent="1">
          <mxGeometry x="-371.64" y="628" width="50" height="50" as="geometry" />
        </mxCell>
        <mxCell id="OWa3Dt7lXm-wcct0nZQZ-239" style="rounded=0;orthogonalLoop=1;jettySize=auto;html=1;entryX=1;entryY=1;entryDx=0;entryDy=0;endArrow=none;startFill=0;strokeWidth=1;exitX=0.5;exitY=0;exitDx=0;exitDy=0;" edge="1" parent="1" target="OWa3Dt7lXm-wcct0nZQZ-243" source="OWa3Dt7lXm-wcct0nZQZ-62">
          <mxGeometry relative="1" as="geometry">
            <mxPoint x="-501" y="800" as="sourcePoint" />
          </mxGeometry>
        </mxCell>
        <mxCell id="OWa3Dt7lXm-wcct0nZQZ-240" value="N" style="edgeLabel;html=1;align=center;verticalAlign=middle;resizable=0;points=[];" vertex="1" connectable="0" parent="OWa3Dt7lXm-wcct0nZQZ-239">
          <mxGeometry x="-0.1711" y="1" relative="1" as="geometry">
            <mxPoint as="offset" />
          </mxGeometry>
        </mxCell>
        <mxCell id="OWa3Dt7lXm-wcct0nZQZ-241" value="" style="rounded=0;orthogonalLoop=1;jettySize=auto;html=1;endArrow=none;startFill=0;strokeWidth=1;entryX=0.5;entryY=0;entryDx=0;entryDy=0;exitX=0.75;exitY=1;exitDx=0;exitDy=0;" edge="1" parent="1" target="OWa3Dt7lXm-wcct0nZQZ-243" source="OWa3Dt7lXm-wcct0nZQZ-215">
          <mxGeometry relative="1" as="geometry">
            <mxPoint x="-500" y="440" as="sourcePoint" />
          </mxGeometry>
        </mxCell>
        <mxCell id="OWa3Dt7lXm-wcct0nZQZ-242" value="N" style="edgeLabel;html=1;align=center;verticalAlign=middle;resizable=0;points=[];" vertex="1" connectable="0" parent="OWa3Dt7lXm-wcct0nZQZ-241">
          <mxGeometry x="-0.3899" relative="1" as="geometry">
            <mxPoint as="offset" />
          </mxGeometry>
        </mxCell>
        <mxCell id="OWa3Dt7lXm-wcct0nZQZ-243" value="Fundar" style="rhombus;whiteSpace=wrap;html=1;rounded=0;" vertex="1" parent="1">
          <mxGeometry x="-157" y="628" width="50" height="50" as="geometry" />
        </mxCell>
        <mxCell id="OWa3Dt7lXm-wcct0nZQZ-244" style="rounded=0;orthogonalLoop=1;jettySize=auto;html=1;entryX=0.828;entryY=0.394;entryDx=0;entryDy=0;endArrow=none;startFill=0;strokeWidth=1;exitX=0.5;exitY=1;exitDx=0;exitDy=0;entryPerimeter=0;" edge="1" parent="1" target="OWa3Dt7lXm-wcct0nZQZ-248" source="OWa3Dt7lXm-wcct0nZQZ-5">
          <mxGeometry relative="1" as="geometry">
            <mxPoint x="114.63999999999999" y="750" as="sourcePoint" />
          </mxGeometry>
        </mxCell>
        <mxCell id="OWa3Dt7lXm-wcct0nZQZ-245" value="N" style="edgeLabel;html=1;align=center;verticalAlign=middle;resizable=0;points=[];" vertex="1" connectable="0" parent="OWa3Dt7lXm-wcct0nZQZ-244">
          <mxGeometry x="-0.1711" y="1" relative="1" as="geometry">
            <mxPoint as="offset" />
          </mxGeometry>
        </mxCell>
        <mxCell id="OWa3Dt7lXm-wcct0nZQZ-246" value="" style="rounded=0;orthogonalLoop=1;jettySize=auto;html=1;endArrow=none;startFill=0;strokeWidth=1;entryX=0;entryY=0.5;entryDx=0;entryDy=0;exitX=1;exitY=0.5;exitDx=0;exitDy=0;" edge="1" parent="1" target="OWa3Dt7lXm-wcct0nZQZ-248" source="OWa3Dt7lXm-wcct0nZQZ-215">
          <mxGeometry relative="1" as="geometry">
            <mxPoint x="115.63999999999999" y="390" as="sourcePoint" />
          </mxGeometry>
        </mxCell>
        <mxCell id="OWa3Dt7lXm-wcct0nZQZ-247" value="N" style="edgeLabel;html=1;align=center;verticalAlign=middle;resizable=0;points=[];" vertex="1" connectable="0" parent="OWa3Dt7lXm-wcct0nZQZ-246">
          <mxGeometry x="-0.3899" relative="1" as="geometry">
            <mxPoint as="offset" />
          </mxGeometry>
        </mxCell>
        <mxCell id="OWa3Dt7lXm-wcct0nZQZ-248" value="Visitar" style="rhombus;whiteSpace=wrap;html=1;rounded=0;" vertex="1" parent="1">
          <mxGeometry x="10" y="460" width="50" height="50" as="geometry" />
        </mxCell>
        <mxCell id="OWa3Dt7lXm-wcct0nZQZ-276" value="" style="rounded=0;orthogonalLoop=1;jettySize=auto;html=1;endArrow=none;startFill=0;strokeWidth=1;exitX=1;exitY=0;exitDx=0;exitDy=0;entryX=0;entryY=1;entryDx=0;entryDy=0;" edge="1" parent="1" source="OWa3Dt7lXm-wcct0nZQZ-215" target="OWa3Dt7lXm-wcct0nZQZ-278">
          <mxGeometry relative="1" as="geometry">
            <mxPoint x="-150" y="520" as="sourcePoint" />
            <mxPoint x="-120" y="450" as="targetPoint" />
          </mxGeometry>
        </mxCell>
        <mxCell id="OWa3Dt7lXm-wcct0nZQZ-277" value="N" style="edgeLabel;html=1;align=center;verticalAlign=middle;resizable=0;points=[];" vertex="1" connectable="0" parent="OWa3Dt7lXm-wcct0nZQZ-276">
          <mxGeometry x="-0.3899" relative="1" as="geometry">
            <mxPoint as="offset" />
          </mxGeometry>
        </mxCell>
        <mxCell id="OWa3Dt7lXm-wcct0nZQZ-278" value="Visitar" style="rhombus;whiteSpace=wrap;html=1;rounded=0;" vertex="1" parent="1">
          <mxGeometry x="-132" y="417" width="50" height="50" as="geometry" />
        </mxCell>
        <mxCell id="OWa3Dt7lXm-wcct0nZQZ-279" style="rounded=0;orthogonalLoop=1;jettySize=auto;html=1;entryX=1;entryY=0;entryDx=0;entryDy=0;endArrow=none;startFill=0;strokeWidth=1;exitX=0.5;exitY=1;exitDx=0;exitDy=0;" edge="1" parent="1" source="OWa3Dt7lXm-wcct0nZQZ-8" target="OWa3Dt7lXm-wcct0nZQZ-278">
          <mxGeometry relative="1" as="geometry">
            <mxPoint x="450" y="410" as="sourcePoint" />
            <mxPoint x="61" y="490" as="targetPoint" />
          </mxGeometry>
        </mxCell>
        <mxCell id="OWa3Dt7lXm-wcct0nZQZ-280" value="N" style="edgeLabel;html=1;align=center;verticalAlign=middle;resizable=0;points=[];" vertex="1" connectable="0" parent="OWa3Dt7lXm-wcct0nZQZ-279">
          <mxGeometry x="-0.1711" y="1" relative="1" as="geometry">
            <mxPoint as="offset" />
          </mxGeometry>
        </mxCell>
        <mxCell id="OWa3Dt7lXm-wcct0nZQZ-281" style="rounded=0;orthogonalLoop=1;jettySize=auto;html=1;entryX=1;entryY=0.75;entryDx=0;entryDy=0;endArrow=none;startFill=0;strokeWidth=1;exitX=0;exitY=0.5;exitDx=0;exitDy=0;" edge="1" parent="1" source="OWa3Dt7lXm-wcct0nZQZ-283" target="OWa3Dt7lXm-wcct0nZQZ-215">
          <mxGeometry relative="1" as="geometry">
            <mxPoint x="460" y="420" as="sourcePoint" />
            <mxPoint x="71" y="500" as="targetPoint" />
          </mxGeometry>
        </mxCell>
        <mxCell id="OWa3Dt7lXm-wcct0nZQZ-282" value="N" style="edgeLabel;html=1;align=center;verticalAlign=middle;resizable=0;points=[];" vertex="1" connectable="0" parent="OWa3Dt7lXm-wcct0nZQZ-281">
          <mxGeometry x="-0.1711" y="1" relative="1" as="geometry">
            <mxPoint as="offset" />
          </mxGeometry>
        </mxCell>
        <mxCell id="OWa3Dt7lXm-wcct0nZQZ-283" value="Visitar" style="rhombus;whiteSpace=wrap;html=1;rounded=0;" vertex="1" parent="1">
          <mxGeometry x="210" y="500" width="50" height="50" as="geometry" />
        </mxCell>
        <mxCell id="OWa3Dt7lXm-wcct0nZQZ-284" style="rounded=0;orthogonalLoop=1;jettySize=auto;html=1;entryX=1;entryY=0.5;entryDx=0;entryDy=0;endArrow=none;startFill=0;strokeWidth=1;exitX=0;exitY=0.5;exitDx=0;exitDy=0;" edge="1" parent="1" source="OWa3Dt7lXm-wcct0nZQZ-7" target="OWa3Dt7lXm-wcct0nZQZ-283">
          <mxGeometry relative="1" as="geometry">
            <mxPoint x="220" y="535" as="sourcePoint" />
            <mxPoint x="-150" y="530" as="targetPoint" />
          </mxGeometry>
        </mxCell>
        <mxCell id="OWa3Dt7lXm-wcct0nZQZ-285" value="N" style="edgeLabel;html=1;align=center;verticalAlign=middle;resizable=0;points=[];" vertex="1" connectable="0" parent="OWa3Dt7lXm-wcct0nZQZ-284">
          <mxGeometry x="-0.1711" y="1" relative="1" as="geometry">
            <mxPoint as="offset" />
          </mxGeometry>
        </mxCell>
        <mxCell id="OWa3Dt7lXm-wcct0nZQZ-286" style="rounded=0;orthogonalLoop=1;jettySize=auto;html=1;entryX=1;entryY=1;entryDx=0;entryDy=0;endArrow=none;startFill=0;strokeWidth=1;exitX=0;exitY=0.5;exitDx=0;exitDy=0;" edge="1" parent="1" source="OWa3Dt7lXm-wcct0nZQZ-288" target="OWa3Dt7lXm-wcct0nZQZ-215">
          <mxGeometry relative="1" as="geometry">
            <mxPoint x="500" y="505" as="sourcePoint" />
            <mxPoint x="-120" y="605" as="targetPoint" />
          </mxGeometry>
        </mxCell>
        <mxCell id="OWa3Dt7lXm-wcct0nZQZ-287" value="N" style="edgeLabel;html=1;align=center;verticalAlign=middle;resizable=0;points=[];" vertex="1" connectable="0" parent="OWa3Dt7lXm-wcct0nZQZ-286">
          <mxGeometry x="-0.1711" y="1" relative="1" as="geometry">
            <mxPoint as="offset" />
          </mxGeometry>
        </mxCell>
        <mxCell id="OWa3Dt7lXm-wcct0nZQZ-288" value="Visitar" style="rhombus;whiteSpace=wrap;html=1;rounded=0;" vertex="1" parent="1">
          <mxGeometry x="100" y="560" width="50" height="50" as="geometry" />
        </mxCell>
        <mxCell id="OWa3Dt7lXm-wcct0nZQZ-289" style="rounded=0;orthogonalLoop=1;jettySize=auto;html=1;entryX=1;entryY=0.5;entryDx=0;entryDy=0;endArrow=none;startFill=0;strokeWidth=1;exitX=0.5;exitY=0;exitDx=0;exitDy=0;" edge="1" parent="1" target="OWa3Dt7lXm-wcct0nZQZ-288" source="OWa3Dt7lXm-wcct0nZQZ-3">
          <mxGeometry relative="1" as="geometry">
            <mxPoint x="560" y="625" as="sourcePoint" />
            <mxPoint x="-110" y="615" as="targetPoint" />
          </mxGeometry>
        </mxCell>
        <mxCell id="OWa3Dt7lXm-wcct0nZQZ-290" value="N" style="edgeLabel;html=1;align=center;verticalAlign=middle;resizable=0;points=[];" vertex="1" connectable="0" parent="OWa3Dt7lXm-wcct0nZQZ-289">
          <mxGeometry x="-0.1711" y="1" relative="1" as="geometry">
            <mxPoint as="offset" />
          </mxGeometry>
        </mxCell>
        <mxCell id="OWa3Dt7lXm-wcct0nZQZ-291" value="Visitar" style="rhombus;whiteSpace=wrap;html=1;rounded=0;" vertex="1" parent="1">
          <mxGeometry x="-157" y="628" width="50" height="50" as="geometry" />
        </mxCell>
      </root>
    </mxGraphModel>
  </diagram>
</mxfile>
